# File created by Blade
# Date/Time:  Mon Nov 15 14:44:42 2010
#---------------------------------------------------------
:version 1.10
:name HOM
:units
  mass 1.0
  length 1.000000
  angle deg
:documentation
     Acclaim Skeleton File
:root
   axis xyz
   order TX TY TZ RX RY RZ
   position 0.000000 0.000000 0.000000
   orientation 0 0 0
:bonedata
   begin
      id 1
      name LeftUpLeg_dum
      direction 1.000000 0.000000 0.000000
      length 4.719518
      axis 0.0 0.0 0.0 xyz
   end
   begin
      id 2
      name RightUpLeg_dum
      direction -1.000000 0.000000 0.000000
      length 4.719518
      axis 0.0 0.0 0.0 xyz
   end
   begin
      id 3
      name Spine_dum
      direction 0.000000 1.000000 0.000000
      length 0.039370
      axis 0.0 0.0 0.0 xyz
   end
   begin
      id 4
      name LeftUpLeg
      direction 0.000000 -1.000000 0.000000
      length 19.141694
      axis 0.0 0.0 0.0 xyz
      dof rx ry rz
   end
   begin
      id 5
      name LeftLeg
      direction 0.000000 -1.000000 0.000000
      length 19.555040
      axis 0.0 0.0 0.0 xyz
      dof rx ry rz
   end
   begin
      id 6
      name LeftFoot
      direction 0.000000 -0.258819 0.965926
      length 6.929396
      axis 15.0 0.0 0.0 xyz
      dof rx ry rz
   end
   begin
      id 7
      name LeftToeBase
      direction 0.000000 0.000000 1.000000
      length 2.952750
      axis 0.0 0.0 0.0 xyz
      dof rx ry rz
   end
   begin
      id 8
      name RightUpLeg
      direction 0.000000 -1.000000 0.000000
      length 19.141694
      axis 0.0 0.0 0.0 xyz
      dof rx ry rz
   end
   begin
      id 9
      name RightLeg
      direction 0.000000 -1.000000 0.000000
      length 19.555040
      axis 0.0 0.0 0.0 xyz
      dof rx ry rz
   end
   begin
      id 10
      name RightFoot
      direction 0.000000 -0.258819 0.965926
      length 6.929396
      axis 15.0 0.0 0.0 xyz
      dof rx ry rz
   end
   begin
      id 11
      name RightToeBase
      direction 0.000000 0.000000 1.000000
      length 2.952750
      axis 0.0 0.0 0.0 xyz
      dof rx ry rz
   end
   begin
      id 12
      name Spine
      direction 0.000000 1.000000 0.000000
      length 11.965764
      axis 0.0 0.0 0.0 xyz
      dof rx ry rz
   end
   begin
      id 13
      name Spine1
      direction 0.000000 1.000000 0.000000
      length 0.000000
      axis 0.0 0.0 0.0 xyz
      dof rx ry rz
   end
   begin
      id 14
      name Spine1_dum1
      direction 0.000000 1.000000 0.000000
      length 9.788721
      axis 0.0 0.0 0.0 xyz
   end
   begin
      id 15
      name Spine1_dum2
      direction 0.000000 1.000000 0.000000
      length 9.788721
      axis 0.0 0.0 0.0 xyz
   end
   begin
      id 16
      name Spine1_dum3
      direction 0.000000 1.000000 0.000000
      length 9.788721
      axis 0.0 0.0 0.0 xyz
   end
   begin
      id 17
      name Neck
      direction 0.000000 1.000000 0.000000
      length 7.029632
      axis 0.0 0.0 0.0 xyz
      dof rx ry rz
   end
   begin
      id 18
      name Head
      direction 0.000000 1.000000 0.000000
      length 4.527550
      axis 0.0 0.0 0.0 xyz
      dof rx ry rz
   end
   begin
      id 19
      name LeftShoulder
      direction 1.000000 -0.000004 0.000000
      length 9.320257
      axis 0.0 0.0 -90.0 xyz
      dof rx ry rz
   end
   begin
      id 20
      name LeftArm
      direction 1.000000 -0.000004 0.000000
      length 12.801352
      axis 0.0 0.0 -90.0 xyz
      dof rx ry rz
   end
   begin
      id 21
      name LeftForeArm
      direction 1.000000 -0.000004 0.000000
      length 11.278127
      axis 0.0 0.0 -90.0 xyz
      dof rx ry rz
   end
   begin
      id 22
      name LeftHand
      direction 0.000000 0.000000 0.000000
      length 0.000000
      axis 0.0 0.0 -90.0 xyz
      dof rx ry rz
   end
   begin
      id 23
      name LeftHand_dum1
      direction 0.000000 0.000000 0.000000
      length 0.000000
      axis 0.0 0.0 -90.0 xyz
   end
   begin
      id 24
      name LeftHand_dum2
      direction 1.000000 -0.000004 0.000000
      length 3.937000
      axis 0.0 0.0 -90.0 xyz
   end
   begin
      id 25
      name LeftHandThumb
      direction 0.000000 0.000000 1.000000
      length 3.937000
      axis 0.0 0.0 -90.0 xyz
      dof rx ry rz
   end
   begin
      id 26
      name RightShoulder
      direction -1.000000 -0.000004 0.000000
      length 9.320257
      axis 0.0 0.0 90.0 xyz
      dof rx ry rz
   end
   begin
      id 27
      name RightArm
      direction -1.000000 -0.000004 0.000000
      length 12.801352
      axis 0.0 0.0 90.0 xyz
      dof rx ry rz
   end
   begin
      id 28
      name RightForeArm
      direction -1.000000 -0.000004 0.000000
      length 11.278127
      axis 0.0 0.0 90.0 xyz
      dof rx ry rz
   end
   begin
      id 29
      name RightHand
      direction 0.000000 0.000000 0.000000
      length 0.000000
      axis 0.0 0.0 90.0 xyz
      dof rx ry rz
   end
   begin
      id 30
      name RightHand_dum1
      direction 0.000000 0.000000 0.000000
      length 0.000000
      axis 0.0 0.0 90.0 xyz
   end
   begin
      id 31
      name RightHand_dum2
      direction -1.000000 -0.000004 0.000000
      length 5.393690
      axis 0.0 0.0 90.0 xyz
   end
   begin
      id 32
      name RightHandThumb
      direction 0.000000 0.000000 1.000000
      length 3.937000
      axis 0.0 0.0 90.0 xyz
      dof rx ry rz
   end
:hierarchy
   begin
      root LeftUpLeg_dum RightUpLeg_dum Spine_dum
      LeftUpLeg_dum LeftUpLeg
      RightUpLeg_dum RightUpLeg
      Spine_dum Spine
      LeftUpLeg LeftLeg
      LeftLeg LeftFoot
      LeftFoot LeftToeBase
      RightUpLeg RightLeg
      RightLeg RightFoot
      RightFoot RightToeBase
      Spine Spine1
      Spine1 Spine1_dum1 Spine1_dum2 Spine1_dum3
      Spine1_dum1 Neck
      Spine1_dum2 LeftShoulder
      Spine1_dum3 RightShoulder
      Neck Head
      LeftShoulder LeftArm
      LeftArm LeftForeArm
      LeftForeArm LeftHand
      LeftHand LeftHand_dum1 LeftHand_dum2
      LeftHand_dum1 LeftHandThumb
      RightShoulder RightArm
      RightArm RightForeArm
      RightForeArm RightHand
      RightHand RightHand_dum1 RightHand_dum2
      RightHand_dum1 RightHandThumb
   end

# File created by Blade
# Date/Time:  Mon Nov 15 14:56:25 2010
# Frame Rate: 200.000 fps
#------------------------------------------------------
:FULLY-SPECIFIED
:DEGREES
608
root  6.152032 39.400127 59.477375 -19.200895 -12.563768 7.679257
LeftUpLeg  -1.010767 9.304896 -8.947944
LeftLeg  21.420312 -0.000000 0.000000
LeftFoot  4.527740 13.092468 5.020811
LeftToeBase  -16.426076 0.000000 -0.000000
RightUpLeg  11.474493 -4.999459 -15.070495
RightLeg  63.103471 -0.000000 -0.000000
RightFoot  15.444891 -20.177271 -13.337223
RightToeBase  -33.278346 0.000000 -0.000000
Spine  12.348016 2.678401 -1.983595
Spine1  3.987223 3.729586 -8.070598
Neck  14.795400 0.868144 -4.106434
Head  -19.482837 -4.377270 2.587140
LeftShoulder  -17.043892 16.052936 -3.998732
LeftArm  8.450433 4.943775 -78.841996
LeftForeArm  10.423263 -0.000000 0.000000
LeftHand  -24.091632 17.020464 -19.847857
LeftHandThumb  0.000000 -0.000000 0.000000
RightShoulder  -7.127210 -10.235766 -1.506186
RightArm  20.150395 -16.193226 78.557106
RightForeArm  33.201940 -0.000000 0.000000
RightHand  1.822067 -1.047708 9.515178
RightHandThumb  0.000000 -0.000000 0.000000
609
root  6.152051 39.484362 59.806097 -19.262657 -12.475449 7.779028
LeftUpLeg  -0.228281 8.885224 -9.181830
LeftLeg  20.881922 -0.000000 0.000000
LeftFoot  4.489907 13.449559 4.731124
LeftToeBase  -16.414849 0.000000 -0.000000
RightUpLeg  10.501804 -5.380032 -15.107199
RightLeg  63.720694 -0.000000 -0.000000
RightFoot  14.687425 -20.619141 -13.479451
RightToeBase  -33.243633 0.000000 -0.000000
Spine  12.347936 2.587091 -2.095421
Spine1  3.987336 3.589761 -7.965305
Neck  14.818545 0.995318 -4.160918
Head  -19.452534 -4.335722 2.628359
LeftShoulder  -17.046851 15.946264 -4.039093
LeftArm  8.899490 4.971328 -78.788236
LeftForeArm  10.635405 -0.000000 0.000000
LeftHand  -23.681429 16.908393 -19.712424
LeftHandThumb  0.000000 -0.000000 0.000000
RightShoulder  -7.099043 -10.257447 -1.451634
RightArm  20.161332 -16.738539 78.307937
RightForeArm  31.858963 -0.000000 0.000000
RightHand  1.488442 -1.113275 10.380591
RightHandThumb  0.000000 -0.000000 0.000000
610
root  6.144952 39.568309 60.128871 -19.314036 -12.365131 7.788599
LeftUpLeg  0.551086 8.463750 -9.311015
LeftLeg  20.359817 -0.000000 0.000000
LeftFoot  4.437855 13.719024 4.395808
LeftToeBase  -16.400423 0.000000 -0.000000
RightUpLeg  9.586037 -5.783682 -15.002193
RightLeg  64.150228 -0.000000 -0.000000
RightFoot  13.913399 -20.889242 -13.499887
RightToeBase  -32.891795 0.000000 -0.000000
Spine  12.379939 2.504617 -2.161947
Spine1  3.946400 3.475479 -7.833266
Neck  14.867183 1.107740 -4.200477
Head  -19.400946 -4.321215 2.740665
LeftShoulder  -16.953003 15.814650 -3.991077
LeftArm  9.290495 5.030481 -78.760861
LeftForeArm  10.894264 -0.000000 0.000000
LeftHand  -23.214795 16.775487 -19.496229
LeftHandThumb  0.000000 -0.000000 0.000000
RightShoulder  -7.068733 -10.287051 -1.392240
RightArm  20.097619 -17.370806 78.037255
RightForeArm  30.509103 -0.000000 0.000000
RightHand  1.391653 -1.163719 11.111573
RightHandThumb  0.000000 -0.000000 0.000000
611
root  6.133740 39.651994 60.449382 -19.365375 -12.254804 7.798065
LeftUpLeg  1.330582 8.044051 -9.445840
LeftLeg  19.837713 -0.000000 0.000000
LeftFoot  4.384118 13.988187 4.059850
LeftToeBase  -16.385998 0.000000 -0.000000
RightUpLeg  8.668853 -6.185609 -14.890634
RightLeg  64.579762 -0.000000 -0.000000
RightFoot  13.138073 -21.159577 -13.516446
RightToeBase  -32.539956 0.000000 -0.000000
Spine  12.412036 2.422180 -2.228515
Spine1  3.905206 3.361291 -7.701162
Neck  14.915745 1.220196 -4.239942
Head  -19.349331 -4.306809 2.852982
LeftShoulder  -16.859332 15.682960 -3.943315
LeftArm  9.681564 5.089447 -78.733080
LeftForeArm  11.153123 -0.000000 0.000000
LeftHand  -22.749015 16.640901 -19.281324
LeftHandThumb  0.000000 -0.000000 0.000000
RightShoulder  -7.038452 -10.316687 -1.332856
RightArm  20.036823 -18.003353 77.766358
RightForeArm  29.159243 -0.000000 0.000000
RightHand  1.294227 -1.212925 11.842652
RightHandThumb  0.000000 -0.000000 0.000000
612
root  6.120763 39.735673 60.771313 -19.395117 -12.095757 7.779729
LeftUpLeg  2.111443 7.641163 -9.548925
LeftLeg  19.293737 -0.000000 0.000000
LeftFoot  4.351701 14.162401 3.752514
LeftToeBase  -16.365564 0.000000 -0.000000
RightUpLeg  7.797353 -6.606044 -14.736230
RightLeg  64.796008 -0.000000 -0.000000
RightFoot  12.468463 -21.218598 -13.472843
RightToeBase  -32.855599 0.000000 -0.000000
Spine  12.420506 2.322681 -2.295066
Spine1  3.876817 3.233847 -7.552176
Neck  15.035772 1.261874 -4.254558
Head  -19.449789 -4.263351 2.942970
LeftShoulder  -16.748001 15.556429 -3.872179
LeftArm  10.067791 5.061103 -78.738827
LeftForeArm  11.476534 -0.000000 0.000000
LeftHand  -22.248574 16.351509 -18.921616
LeftHandThumb  0.000000 -0.000000 0.000000
RightShoulder  -7.032578 -10.324017 -1.273517
RightArm  19.912130 -18.624942 77.526848
RightForeArm  27.924833 -0.000000 0.000000
RightHand  0.872400 -1.395368 12.848069
RightHandThumb  0.000000 -0.000000 0.000000
613
root  6.104906 39.818082 61.092403 -19.424892 -11.936719 7.761320
LeftUpLeg  2.892318 7.239703 -9.657441
LeftLeg  18.749761 -0.000000 0.000000
LeftFoot  4.318294 14.336443 3.444839
LeftToeBase  -16.345130 0.000000 -0.000000
RightUpLeg  6.923953 -7.024094 -14.575266
RightLeg  65.012254 -0.000000 -0.000000
RightFoot  11.798537 -21.277140 -13.428485
RightToeBase  -33.171242 0.000000 -0.000000
Spine  12.429091 2.223192 -2.361628
Spine1  3.848100 3.106477 -7.403144
Neck  15.155790 1.303582 -4.269087
Head  -19.550172 -4.219736 3.032876
LeftShoulder  -16.636903 15.429764 -3.801342
LeftArm  10.454004 5.032799 -78.744765
LeftForeArm  11.799944 -0.000000 0.000000
LeftHand  -21.750771 16.059123 -18.565082
LeftHandThumb  0.000000 -0.000000 0.000000
RightShoulder  -7.026712 -10.331353 -1.214178
RightArm  19.789725 -19.247019 77.287877
RightForeArm  26.690424 -0.000000 0.000000
RightHand  0.447400 -1.570377 13.854884
RightHandThumb  0.000000 -0.000000 0.000000
614
root  6.085257 39.897875 61.411792 -19.468496 -11.739744 7.719519
LeftUpLeg  3.682229 6.962726 -9.718148
LeftLeg  18.225026 -0.000000 0.000000
LeftFoot  4.278878 14.390013 3.188851
LeftToeBase  -16.263722 0.000000 -0.000000
RightUpLeg  6.116009 -7.487321 -14.385876
RightLeg  65.088279 -0.000000 -0.000000
RightFoot  11.054297 -21.168621 -13.309134
RightToeBase  -33.081687 0.000000 -0.000000
Spine  12.477799 2.136885 -2.439879
Spine1  3.787440 2.985879 -7.211741
Neck  15.242988 1.292322 -4.253129
Head  -19.574582 -4.184331 3.084018
LeftShoulder  -16.498826 15.329919 -3.701838
LeftArm  10.847033 5.032333 -78.752091
LeftForeArm  12.202586 -0.000000 0.000000
LeftHand  -21.340991 15.990142 -18.418538
LeftHandThumb  0.000000 -0.000000 0.000000
RightShoulder  -7.064317 -10.391080 -1.170072
RightArm  19.649493 -19.811704 77.101082
RightForeArm  25.528276 -0.000000 0.000000
RightHand  -0.155105 -1.953412 14.986551
RightHandThumb  0.000000 -0.000000 0.000000
615
root  6.063555 39.975552 61.728955 -19.512216 -11.542800 7.677594
LeftUpLeg  4.471979 6.686605 -9.782659
LeftLeg  17.700291 -0.000000 0.000000
LeftFoot  4.239206 14.443411 2.932764
LeftToeBase  -16.182314 0.000000 -0.000000
RightUpLeg  5.305640 -7.947849 -14.189703
RightLeg  65.164304 -0.000000 -0.000000
RightFoot  10.310849 -21.058667 -13.191392
RightToeBase  -32.992133 0.000000 -0.000000
Spine  12.526621 2.050644 -2.518198
Spine1  3.726384 2.865483 -7.020232
Neck  15.330183 1.281038 -4.237190
Head  -19.598960 -4.148904 3.135143
LeftShoulder  -16.360995 15.229843 -3.602632
LeftArm  11.240061 5.031917 -78.759420
LeftForeArm  12.605227 -0.000000 0.000000
LeftHand  -20.931538 15.920157 -18.272562
LeftHandThumb  0.000000 -0.000000 0.000000
RightShoulder  -7.101976 -10.450779 -1.125917
RightArm  19.510719 -20.376816 76.915087
RightForeArm  24.366128 -0.000000 0.000000
RightHand  -0.765211 -2.324456 16.122463
RightHandThumb  0.000000 -0.000000 0.000000
616
root  6.041635 40.051380 62.041851 -19.500861 -11.323626 7.607132
LeftUpLeg  5.236113 6.486782 -9.793985
LeftLeg  17.117534 -0.000000 0.000000
LeftFoot  4.248381 14.350971 2.721954
LeftToeBase  -16.229441 0.000000 -0.000000
RightUpLeg  4.488838 -8.422533 -13.941697
RightLeg  65.073780 -0.000000 -0.000000
RightFoot  9.602976 -20.751978 -13.111875
RightToeBase  -33.073380 0.000000 -0.000000
Spine  12.561105 1.943162 -2.542176
Spine1  3.620624 2.743226 -6.908329
Neck  15.522323 1.264411 -4.222476
Head  -19.810036 -4.101191 3.292273
LeftShoulder  -16.180928 15.108339 -3.426280
LeftArm  11.563525 4.954314 -78.787278
LeftForeArm  13.104643 -0.000000 0.000000
LeftHand  -20.589802 15.781644 -18.121177
LeftHandThumb  0.000000 -0.000000 0.000000
RightShoulder  -7.116066 -10.424552 -1.078384
RightArm  19.174962 -20.897568 76.847820
RightForeArm  23.330882 -0.000000 0.000000
RightHand  -1.420421 -2.707144 17.213854
RightHandThumb  0.000000 -0.000000 0.000000
617
root  6.018294 40.124715 62.354175 -19.489790 -11.104439 7.536767
LeftUpLeg  5.999988 6.287128 -9.807986
LeftLeg  16.534777 -0.000000 0.000000
LeftFoot  4.257903 14.258564 2.511215
LeftToeBase  -16.276567 0.000000 -0.000000
RightUpLeg  3.668937 -8.893663 -13.686556
RightLeg  64.983256 -0.000000 -0.000000
RightFoot  8.896982 -20.444397 -13.036568
RightToeBase  -33.154627 0.000000 -0.000000
Spine  12.595632 1.835696 -2.566217
Spine1  3.514635 2.621175 -6.796211
Neck  15.714457 1.247736 -4.207819
Head  -20.020969 -4.052900 3.449216
LeftShoulder  -16.001353 14.986302 -3.250425
LeftArm  11.886990 4.876869 -78.815572
LeftForeArm  13.604059 -0.000000 0.000000
LeftHand  -20.248680 15.642265 -17.970756
LeftHandThumb  0.000000 -0.000000 0.000000
RightShoulder  -7.130132 -10.398315 -1.030862
RightArm  18.838678 -21.418680 76.783596
RightForeArm  22.295636 -0.000000 0.000000
RightHand  -2.083028 -3.077268 18.309919
RightHandThumb  0.000000 -0.000000 0.000000
